<svg xmlns="http://www.w3.org/2000/svg" viewBox="0 0 24 24"><title>Simkl SVG Icon</title><path fill="#e5e1e1" d="M3.84 0A3.83 3.83 0 0 0 0 3.84v16.32A3.83 3.83 0 0 0 3.84 24h16.32A3.83 3.83 0 0 0 24 20.16V3.84A3.83 3.83 0 0 0 20.16 0zm8.567 4.11q3.11 0 4.393.186q1.69.252 2.438.877q1.009.867 1.009 3.104q0 .241-.01.768h-4.234q-.021-.537-.074-.746q-.147-.615-.966-.692q-.725-.065-3.53-.066q-2.775 0-3.289.165q-.578.2-.578 1.024q0 .792.61.969q.514.143 4.633.275q3.73.11 4.76.275q1.04.165 1.654.495t.983.936q.556.892.557 2.873q0 2.212-.546 3.247q-.547 1.024-1.785 1.398q-1.219.374-6.71.374q-3.338 0-4.82-.187q-1.806-.22-2.593-.86q-.85-.684-1.008-1.93a10.5 10.5 0 0 1-.085-1.434v-.789H7.44q-.01 1.11.43 1.428q.232.151.525.203q.294.056 1.03.077a166 166 0 0 0 2.405.022q2.793-.01 3.234-.033q.83-.065 1.092-.23q.368-.242.368-1.077q0-.57-.231-.802q-.316-.318-1.503-.34q-.82 0-3.425-.132q-2.69-.133-3.488-.154q-2.08-.066-2.932-.505q-1.092-.56-1.429-1.91q-.189-.747-.189-1.956q0-2.547.925-3.59q.693-.79 2.102-1.044q1.271-.22 6.053-.22z"/></svg>
